<?xml version="1.0" encoding="UTF-8"?>
<svg id="Capa_1" data-name="Capa 1" xmlns="http://www.w3.org/2000/svg" viewBox="0 0 928.05 177.14">
  <defs>
    <style>
      .cls-1, .cls-2, .cls-3 {
        fill: #fff;
      }

      .cls-2, .cls-4 {
        font-family: HostGrotesk-Bold, 'Host Grotesk';
        font-size: 16px;
        font-weight: 700;
      }

      .cls-3, .cls-5 {
        font-family: Lemon-Days, 'Lemon Days';
        font-size: 50px;
      }

      .cls-4, .cls-6, .cls-5 {
        fill: #1d1d1b;
      }

      .cls-7 {
        letter-spacing: -.03em;
      }

      .cls-8 {
        letter-spacing: -.02em;
      }

      .cls-9 {
        fill: #3c3c3b;
      }

      .cls-10 {
        fill: #a3195b;
      }

      .cls-11 {
        fill: #010101;
      }
    </style>
  </defs>
  <g>
    <circle class="cls-6" cx="221.8" cy="78.77" r="6.2"/>
    <g>
      <rect class="cls-11" x="219.26" y="36.84" width="5.45" height="43.01"/>
      <path class="cls-11" d="m269.43,104.4c-1-14.48-2.26-20.15-2.27-20.21l-.04-.22c-5.58-39.32-31.31-57.64-43.67-66.45-1.58-1.12-2.94-2.09-4.05-2.96l3.34-4.31c1.03.8,2.35,1.74,3.88,2.83,12.97,9.24,39.95,28.45,45.89,70.02.2.93,1.4,6.91,2.37,20.92l-5.44.38Z"/>
      <path class="cls-11" d="m267.12,83.97c-5.58-39.32-31.31-57.64-43.67-66.45-1.58-1.12-2.94-2.09-4.05-2.96l3.34-4.31c1.03.8,2.35,1.74,3.88,2.83,12.98,9.25,39.99,28.48,45.9,70.12l-5.4.77Z"/>
      <path class="cls-11" d="m175.97,104.4l-5.44-.38c.97-14.01,2.17-19.99,2.37-20.92,5.94-41.57,32.92-60.78,45.89-70.02,1.53-1.09,2.85-2.03,3.88-2.83l3.34,4.31c-1.11.86-2.48,1.83-4.05,2.96-12.36,8.8-38.09,27.12-43.67,66.45l-.04.23c-.01.05-1.27,5.72-2.27,20.2Z"/>
      <path class="cls-11" d="m195.2,91.85c-.47-3.71-.93-8.1-.75-12.5.29-7.28,2.62-14.32,7.14-21.51,1.02-1.62,2.11-3.2,3.17-4.72,1-1.43,2.02-2.92,2.96-4.39l5.84-9.08c6.16-7.28,11.49-5.4,14.12-3.63,3.53,2.38,5.56,6.06,7.34,9.31.61,1.11,1.18,2.15,1.8,3.13.93,1.48,1.96,2.96,2.96,4.4,1.06,1.52,2.15,3.09,3.17,4.72,4.51,7.19,6.85,14.23,7.14,21.51.17,4.4-.28,8.79-.75,12.5l-5.41-.68c.44-3.49.87-7.6.71-11.6-.25-6.31-2.31-12.46-6.31-18.83-.95-1.51-2.01-3.03-3.03-4.51-1.03-1.48-2.1-3.02-3.09-4.6-.7-1.11-1.34-2.28-1.96-3.41-1.63-2.97-3.17-5.77-5.61-7.41-.88-.6-2.95-1.99-6.8,2.49l-5.51,8.62c-.99,1.56-2.05,3.1-3.08,4.58-1.02,1.47-2.08,2.99-3.03,4.51-3.99,6.37-6.06,12.52-6.31,18.83-.16,4,.27,8.11.71,11.6l-5.41.68Z"/>
    </g>
    <ellipse class="cls-9" cx="222.7" cy="103.08" rx="52.18" ry="13.29"/>
  </g>
  <text class="cls-5" transform="translate(60.24 63.31)"><tspan x="0" y="0">Tipy</tspan></text>
  <text class="cls-5" transform="translate(0 107.13)"><tspan x="0" y="0">house</tspan></text>
  <text class="cls-4" transform="translate(106.79 18.34)"><tspan class="cls-7" x="0" y="0">e</tspan><tspan class="cls-8" x="8.43" y="0">s</tspan><tspan x="16.08" y="0">tudio</tspan></text>
  <g>
    <circle class="cls-1" cx="549.19" cy="78.61" r="6.2"/>
    <g>
      <rect class="cls-1" x="546.64" y="36.69" width="5.45" height="43.01"/>
      <path class="cls-1" d="m596.81,104.25c-1-14.48-2.26-20.15-2.27-20.21l-.04-.22c-5.58-39.32-31.31-57.64-43.67-66.45-1.58-1.12-2.94-2.09-4.05-2.96l3.34-4.31c1.03.8,2.35,1.74,3.88,2.83,12.97,9.24,39.95,28.45,45.89,70.02.2.93,1.4,6.91,2.37,20.92l-5.44.38Z"/>
      <path class="cls-1" d="m594.5,83.82c-5.58-39.32-31.31-57.64-43.67-66.45-1.58-1.12-2.94-2.09-4.05-2.96l3.34-4.31c1.03.8,2.35,1.74,3.88,2.83,12.98,9.25,39.99,28.48,45.9,70.12l-5.4.77Z"/>
      <path class="cls-1" d="m503.35,104.25l-5.44-.38c.97-14.01,2.17-19.99,2.37-20.92,5.94-41.57,32.92-60.78,45.89-70.02,1.53-1.09,2.85-2.03,3.88-2.83l3.34,4.31c-1.11.86-2.48,1.83-4.05,2.96-12.36,8.8-38.09,27.12-43.67,66.45l-.04.23c-.01.05-1.27,5.72-2.27,20.2Z"/>
      <path class="cls-1" d="m522.58,91.7c-.47-3.71-.93-8.1-.75-12.5.29-7.28,2.62-14.32,7.14-21.51,1.02-1.62,2.11-3.2,3.17-4.72,1-1.43,2.02-2.92,2.96-4.39l5.84-9.08c6.16-7.28,11.49-5.4,14.12-3.63,3.53,2.38,5.56,6.06,7.34,9.31.61,1.11,1.18,2.15,1.8,3.13.93,1.48,1.96,2.96,2.96,4.4,1.06,1.52,2.15,3.09,3.17,4.72,4.51,7.19,6.85,14.23,7.14,21.51.17,4.4-.28,8.79-.75,12.5l-5.41-.68c.44-3.49.87-7.6.71-11.6-.25-6.31-2.31-12.46-6.31-18.83-.95-1.51-2.01-3.03-3.03-4.51-1.03-1.48-2.1-3.02-3.09-4.6-.7-1.11-1.34-2.28-1.96-3.41-1.63-2.97-3.17-5.77-5.61-7.41-.88-.6-2.95-1.99-6.8,2.49l-5.51,8.62c-.99,1.56-2.05,3.1-3.08,4.58-1.02,1.47-2.08,2.99-3.03,4.51-3.99,6.37-6.06,12.52-6.31,18.83-.16,4,.27,8.11.71,11.6l-5.41.68Z"/>
    </g>
    <ellipse class="cls-1" cx="550.08" cy="102.93" rx="52.18" ry="13.29"/>
  </g>
  <g>
    <circle class="cls-10" cx="874.98" cy="73.65" r="6.2"/>
    <g>
      <rect class="cls-10" x="872.43" y="31.72" width="5.45" height="43.01"/>
      <path class="cls-10" d="m922.61,99.28c-1-14.48-2.26-20.15-2.27-20.21l-.04-.22c-5.58-39.32-31.31-57.64-43.67-66.45-1.58-1.12-2.94-2.09-4.05-2.96l3.34-4.31c1.03.8,2.35,1.74,3.88,2.83,12.97,9.24,39.95,28.45,45.89,70.02.2.93,1.4,6.91,2.37,20.92l-5.44.38Z"/>
      <path class="cls-10" d="m920.29,78.85c-5.58-39.32-31.31-57.64-43.67-66.45-1.58-1.12-2.94-2.09-4.05-2.96l3.34-4.31c1.03.8,2.35,1.74,3.88,2.83,12.98,9.25,39.99,28.48,45.9,70.12l-5.4.77Z"/>
      <path class="cls-10" d="m829.14,99.28l-5.44-.38c.97-14.01,2.17-19.99,2.37-20.92,5.94-41.57,32.92-60.78,45.89-70.02,1.53-1.09,2.85-2.03,3.88-2.83l3.34,4.31c-1.11.86-2.48,1.83-4.05,2.96-12.36,8.8-38.09,27.12-43.67,66.45l-.04.23c-.01.05-1.27,5.72-2.27,20.2Z"/>
      <path class="cls-10" d="m848.37,86.73c-.47-3.71-.93-8.1-.75-12.5.29-7.28,2.62-14.32,7.14-21.51,1.02-1.62,2.11-3.2,3.17-4.72,1-1.43,2.02-2.92,2.96-4.39l5.84-9.08c6.16-7.28,11.49-5.4,14.12-3.63,3.53,2.38,5.56,6.06,7.34,9.31.61,1.11,1.18,2.15,1.8,3.13.93,1.48,1.96,2.96,2.96,4.4,1.06,1.52,2.15,3.09,3.17,4.72,4.51,7.19,6.85,14.23,7.14,21.51.17,4.4-.28,8.79-.75,12.5l-5.41-.68c.44-3.49.87-7.6.71-11.6-.25-6.31-2.31-12.46-6.31-18.83-.95-1.51-2.01-3.03-3.03-4.51-1.03-1.48-2.1-3.02-3.09-4.6-.7-1.11-1.34-2.28-1.96-3.41-1.63-2.97-3.17-5.77-5.61-7.41-.88-.6-2.95-1.99-6.8,2.49l-5.51,8.62c-.99,1.56-2.05,3.1-3.08,4.58-1.02,1.47-2.08,2.99-3.03,4.51-3.99,6.37-6.06,12.52-6.31,18.83-.16,4,.27,8.11.71,11.6l-5.41.68Z"/>
    </g>
    <ellipse class="cls-10" cx="875.87" cy="97.96" rx="52.18" ry="13.29"/>
  </g>
  <text class="cls-3" transform="translate(387.62 63.16)"><tspan x="0" y="0">Tipy</tspan></text>
  <text class="cls-3" transform="translate(327.38 106.98)"><tspan x="0" y="0">house</tspan></text>
  <text class="cls-2" transform="translate(434.17 18.19)"><tspan class="cls-7" x="0" y="0">e</tspan><tspan class="cls-8" x="8.43" y="0">s</tspan><tspan x="16.08" y="0">tudio</tspan></text>
</svg>